<?xml version="1.0" encoding="UTF-8"?>
<svg id="Layer_2" data-name="Layer 2" xmlns="http://www.w3.org/2000/svg" viewBox="0 0 85.48 85.17">
  <defs>
    <style>
      .cls-1 {
        fill: #fff;
      }
    </style>
  </defs>
  <g id="OBJECTS">
    <g>
      <path class="cls-1" d="M66.54,55.29c-2.14,5.01-5.81,9.41-10.56,12.06,0,0,4.15,4.15,4.15,4.15,5.1-3.21,9.49-8.69,11.96-14.77"/>
      <path class="cls-1" d="M83.09,31.08h-5.76c.75,1.82,1.35,3.71,1.8,5.65,3.62,14.52-2.83,30.81-14.79,38.97-1.58,1.12-3.26,2.13-5.01,2.99-2.21-2.21-6.67-6.68-8.89-8.89l-7.7-7.7c-2.14,2.13-5.54,5.55-7.7,7.7-.08-.04-8.86,9.09-8.97,8.84C9.08,70.5.57,48.98,8.16,31.08H2.39C.8,35.62,0,40.33,0,45.22c.01,18.24,11.4,33.81,27.55,39.95l14.17-14.17,1.02-1.02,1.02,1.02c2.86,2.86,11.44,11.44,14.17,14.17,16.15-6.06,27.63-22.03,27.55-39.95,0-4.81-.8-9.63-2.39-14.13Z"/>
      <path class="cls-1" d="M46.94,19.78c7.01,1.17,13.48,5.27,17.4,11.3h6.56C57.91,5.51,20.24,9.09,12.42,36.74c-3.91,12.65,1.88,27.79,12.94,34.76,0,0,4.16-4.16,4.16-4.16-12.45-7.31-16.57-24.02-8.37-36.26,5.44-8.43,15.96-13.05,25.79-11.3Z"/>
    </g>
    <path class="cls-1" d="M78.36,19.65c-4.91-7.64-12.18-13.66-20.77-16.89C54.32,1.53,49-.02,42.29,0c-6.6.02-11.84,1.54-15.09,2.76-7.92,3.01-14.69,8.3-19.54,15.04.05.02,4.91,2.22,4.95,2.24,5.96-8.06,13.54-11.67,15.36-12.5,3.07-1.13,7.95-2.5,14.03-2.42,7.81.1,13.78,2.52,16.98,4.11,1.75.86,3.43,1.87,5.01,2.99,3.31,2.26,6.19,5.14,8.56,8.43.07,0,.15-.01.22-.02"/>
  </g>
</svg>