<?xml version="1.0" encoding="UTF-8"?>
<svg id="Layer_2" data-name="Layer 2" xmlns="http://www.w3.org/2000/svg" viewBox="0 0 315.93 475.73">
  <g id="OBJECTS">
    <g>
      <path d="M148.73,195.82l.91-34.49,1.12-40.6-7.63,5.95c-2.46,1.92-1.98,8.96-2.58,12.39l-3.89,2.23c-1.44,4.58-1.64,9.8-.98,14.98l-2.61,3.99,2.54,12.77c-7.37,1.29-2.7,13.51-2.36,19.14-5.34-3.71-9.04-9.05-12.7-14.42l-5.08-1.26-1.52-16.02-2.69-4.55,2.22-12.76c.23-1.34-2.92-2.19-4.11-1.91-5.17,1.19.36,5.79-6.19,8.64l-.52,9.82-6.46-.06c-3.8,4.39-6.5,10.06-8.6,16.37-2.34-6.12-2.62-12.19-2.65-18.66l-2.86-3.47c.93-5.52,2.89-10.71,5.55-15.96l-1.62-5.49c2.92-4.83,6.34-8.55,11.12-12.8l-2.23-4.49,8.98-7.64-7.7,1.58c-2.02.41-4.54,4.35-6.33,6.3l-7.23,1.34c-4.79,4.52-7.4,9.46-9.89,15.77l-4.21-1.92c-5.95,1.62-9.98,5.65-15.9,10.3.19-6.09,1.71-11.23,3.58-16.56l-2.52-4.27c3.77-4.85,7.97-9.03,12.73-13.08l-.35-4.86,12.26-8.01-2.1-3.7c9.12-6.03,22.18-8.41,31.53-8.63,1.02-.02,2.75-1.41,2.55-2.02s-1.71-1.81-2.43-1.82l-10.58-.1c-3.33-2.52-6.26-3.26-10.41-1.55-9.81,4.06-3-6.51-22.95,5.21l-2.86-2.36c-9.8-1.48-19.35,2.17-29.07,6.58,3.35-7.32,9.09-11.89,15.4-16.2l.94-5.32c6.43-2.18,13.27-3.43,20.47-4.24l.38-5.2,20.55.44,3.4-3.48c7.17.05,24.76,5.5,28.52,4.91.71-.11,1.47-3.04.87-3.41-2.87-1.77-8.68-4.64-12.12-6.42-17.73-9.17-15.07-.34-21.54-8.72-4.51-.6-10.59-.25-15.55.05-.49-.61-2.12-4.13-3.3-4.41l-14.86-3.52c4.02-2.97,9.39-4.03,13.62-5.06,1.11-.44,3.05-2.07,4.58-3.36l20.24,1.94c1.64-.88,4.59-2.51,6.15-1.8l12.24,5.55,4.28-2.47c5.63,4.04,10.78,8.34,16.12,13.08l8.59.99-5.22-6.3c-.19-2.95-1.27-4.83-4-6.03-11.67-5.14-2.15-6.11-18.68-11.35-2.88-9.53-7.72-9.48-16.41-13.61C101.53-.46,106.77.02,112,.09c15.28.18,9.76,3,24,6.74,3.22.85,6.43,6.53,9.37,7.6,3.26.94,5.67.95,7.46,3.73l4.86,7.56c2.67-3.95,4.89-7.94,7.23-10.08,3.77-.74,6.57-.97,8.3-3.89,2.65-4.49,7.24-4.62,10.88-6.43C190.85,1.96,196.43-.19,204.07.03c4.75.14,10.05-.59,14.3,1.8-22.2,8.15-10.36,13.38-19.86,15.02-4.29.74-6.77,3.59-9.55,6.59l-8.26,5.38c-1.23,3.85-2.58,5.98-5.78,9.8l8.03-.43,15.94-13.11,4.58,2.33,12.76-5.63c1.26-.55,4.24,1.67,5.47,1.96l19.24-2,5.28,3.15c4.71,1.3,9.46,2.38,14.22,5.43l-15.94,3.53-2.6,4.52c-4.98-.34-11.41-1.94-15.25.42-8.63,7.46-4.68-.81-21.29,7.79l-12.94,6.7,1.15,2.98c.97,2.53,24.6-6.46,29.14-3.37,2.69,4.73,14.68.28,23.54,2.06l.19,4.92c7.36.88,14.31,2.19,20.88,4.55l.18,4.64c5.89,4.38,12.54,9.03,15.64,16.6-8.36-4.25-21.49-10.43-27.96-6.61l-4.09,2.41c-18.52-11.29-11.8-1.43-22.97-5.27-3.98-1.37-7.01-1.21-9.95,1.63l-11.02.2c-.74.01-2.6,1.2-2.4,1.77.27.76,1.72,2.03,2.71,2.04,10.73.17,22.17,2.67,31.76,8.47l-2.23,3.84,11.7,7.5.5,5.48c4.56,3.86,8.69,8.11,12.45,12.77l-2.68,4.56c2.17,5.27,3.87,10.52,3.5,16.35-5.49-4.65-9.62-8.34-15.22-10.28l-4.55,2.09c-10.41-25.58-14.5-10.5-20.77-21.35-1.32-2.28-4.54-3.74-7.01-1.64l5.5,5.79-2.36,4c4.24,3.86,8.2,8.08,11.21,12.8l-1.39,5.75c8.13,17.14,3.93,15.22,2.69,19.69-1.6,5.77.48,12.38-2.96,18.3-2.27-6.49-4.34-11.91-8.78-16.49l-6.45.31.32-9.3c-2.85-1.67-3.9-4.35-4.16-7.09-.2-2.16-5.37-2.49-6.86-1.05l1.96,9.52c.59,2.85-.99,5.26-2.02,8.16-2.82,7.95,2.41,17.25-6.58,17.85-3.22,4.02-7.75,10.9-12.9,14.41.9-6.17,2.44-11.79,1.46-17.38l-3.38-1.72c-2.72-1.39,4.54-5.99-.04-17.11-1.78-4.33,1.83-10.88-2.17-14.6-6.69-6.23-1.45-6.87-5.79-15.06l-7.58-5.5.8,31.38.92,34.14,1.15,43.89.93,32.96.75,25.8.9,23.04c4.9,3.24,22.1,11.87,21.03,19.81l-63.87.08c-12.03.02,13.06-18.69,17.28-19.24.8-2.82,1.13-6.31,1.22-9.41l.97-36.02.96-32.98,1.04-38.53Z"/>
      <path d="M183.53,438.89c3.84-9.26,12.6-12.52,9.63-15.75-10.98-11.93-22.11-22.27-35.48-32.49-13.56,10.43-25.74,21.6-36.89,34.21,3.85,4.2,7.05,7.61,9.97,11.67,3.55,4.94,2.06,11.38-3.41,13.95-12.28,5.78-20.76-7.67-24.76-4.52-6.96,5.49-13.51,11.92-19.76,18.17-4.67,4.67-9.85,8.76-16.15,10.7-10.15,3.12-21.86-2.38-23.89-13.12-1.51-8.01,5.2-16.3,13.13-17.15,4.4-.47,9.89.28,13.85-.43,5.5-2.74,10.38-6.31,15.15-9.8,2.96-2.16,3.52-5.75,1.62-8.67-10.16-15.58-18.56-14.91-19.02-21.71,11.56-10.4,28.41-1.23,39.53,6.51l36.56-29.97c-42.72-30.83-91.71-47.41-143.6-54.45,25.09-6.3,48.64-.99,71.85,4.28,30.83,8.8,58.95,22.77,85.84,40.51,40.93-27.83,107.67-56.57,158.24-44.79-52.58,6.95-100.76,23.38-144.12,54.33l36.44,30.15c11.36-7.7,25.69-16.27,39.17-7.38,1.38.91.09,4.27-1.22,5.16-5.68,3.82-24.99,19.16-16.01,25.84,4.65,3.46,9.92,7.26,14.82,9.76,4.18,2.14,16.02-3.02,23.45,5.45,3.24,3.69,5.64,9.07,3.68,14.4-3.98,10.81-16.98,14.98-27.15,9.75-12.7-6.53-20.43-19.19-33.11-28.25-7.66,1.91-13.01,9.55-23.19,5.55-4.41-1.74-7.4-6.48-5.16-11.89Z"/>
    </g>
  </g>
</svg>
